<svg width="256" height="256" viewBox="0 0 256 256" fill="none" xmlns="http://www.w3.org/2000/svg">
<g clip-path="url(#clip0_6806_203)">
<path d="M122.163 0.4096C125.849 0.1024 129.433 0 133.12 0C199.782 2.4576 253.337 55.9104 256 122.573V223.232C255.897 241.459 241.049 256.102 222.925 256.001C206.336 253.44 193.638 239.923 192.102 223.232V122.573C189.337 87.4496 158.617 61.1328 123.494 63.8976C123.085 63.8976 122.675 64 122.265 64" fill="#FBBC04"/>
<path d="M256 223.949C256 241.562 241.664 255.898 224.051 255.898C206.439 255.898 192.103 241.562 192.103 223.949C192.103 206.336 206.439 192 224.051 192C241.664 192 256 206.336 256 223.949Z" fill="#4285F4"/>
<path d="M124.006 254.874C142.131 255.078 156.979 240.64 157.184 222.515C157.184 222.413 157.184 222.413 157.184 222.31C156.672 204.698 141.926 190.771 124.314 191.283C124.109 191.283 123.802 191.283 123.597 191.283C88.6784 188.621 62.3616 158.31 64.8192 123.29V122.778C67.3792 91.2384 92.4672 66.3552 124.006 64C141.619 64.7168 156.467 50.9952 157.184 33.3824C157.184 33.1776 157.184 33.0752 157.184 32.8704C156.979 14.7456 142.131 0.10238 124.006 0.305057H121.754C53.8624 3.48158 0.4096 59.1872 0 127.181V127.693C0 207.462 69.9392 254.976 122.061 254.976H124.006V254.874Z" fill="#EA4335"/>
</g>
<defs>
<clipPath id="clip0_6806_203">
<rect width="256" height="256" fill="white"/>
</clipPath>
</defs>
</svg>
