<svg width="256" height="256" viewBox="0 0 256 256" fill="none" xmlns="http://www.w3.org/2000/svg">
<g clip-path="url(#clip0_2_11)">
<path d="M56.9 0C58.4 0 196.2 0 198.7 0C205.6 0 212.3 1.1 218.8 3.4C228.2 6.8 236.7 12.8 243.1 20.6C249.6 28.4 253.9 38 255.4 48C256 51.7 256.1 55.4 256.1 59.1C256.1 62.5 256.1 182.3 256.1 187.7C256.1 190.9 256.1 194.2 256.1 197.4C256.1 201.8 255.9 206.3 255 210.6C253 220.5 248.3 229.8 241.5 237.3C234.8 244.8 226 250.4 216.5 253.4C210.7 255.2 204.7 256 198.6 256C195.9 256 56.5 256 54.4 255.9C44.2 255.4 34.1 252.1 25.6 246.4C17.3 240.8 10.5 233 6.10001 224C2.30001 216.3 0.400007 207.7 0.400007 199.1C0.400007 197.1 0.400007 58.9 0.400007 56.9C0.200007 48.4 2.00001 40 5.70001 32.4C10 23.4 16.7 15.5 25 9.9C33.5 4.1 43.5 0.7 53.7 0.2C54.7 0 55.8 0 56.9 0Z" fill="white"/>
<path d="M34.874 173.489H50.4206V106.797H34.874V173.489ZM42.6161 98.0507C47.4862 98.0507 51.2947 94.2755 51.2947 89.5568C51.2947 84.775 47.4862 81 42.6161 81C37.8086 81 34 84.7751 34 89.5568C34 94.2757 37.8086 98.0507 42.6161 98.0507ZM102.182 81.1883C75.8972 81.1883 59.4133 99.2458 59.4133 128.126C59.4133 157.005 75.8956 175 102.182 175C128.405 175 144.889 157.005 144.889 128.126C144.889 99.2458 128.406 81.1883 102.182 81.1883ZM102.182 95.0303C118.228 95.0303 128.467 107.866 128.467 128.125C128.467 148.322 118.228 161.157 102.182 161.157C86.0739 161.157 75.8972 148.322 75.8972 128.125C75.8972 107.866 86.0742 95.0303 102.182 95.0303ZM151.447 147.945C152.134 164.682 165.745 175 186.473 175C208.264 175 222 164.178 222 146.938C222 133.411 214.258 125.798 195.964 121.583L185.6 119.192C174.549 116.549 169.991 113.026 169.991 106.986C169.991 99.4355 176.859 94.4021 187.036 94.4021C197.338 94.4021 204.392 99.4985 205.142 107.992H220.501C220.127 92.0112 207.015 81.1888 187.161 81.1888C167.556 81.1888 153.632 92.0735 153.632 108.181C153.632 121.142 161.499 129.196 178.106 133.034L189.782 135.802C201.145 138.508 205.766 142.283 205.766 148.826C205.766 156.376 198.211 161.787 187.348 161.787C176.359 161.787 168.056 156.314 167.057 147.945H151.448L151.447 147.945Z" fill="black"/>
</g>
<defs>
<clipPath id="clip0_2_11">
<rect width="256" height="256" fill="white"/>
</clipPath>
</defs>
</svg>
