<svg width="351" height="351" viewBox="0 0 351 351" fill="none" xmlns="http://www.w3.org/2000/svg">
<path d="M254.387 35.5607H61.6773C55.4543 35.5781 49.4911 38.0578 45.0907 42.4582C40.6903 46.8586 38.2106 52.8217 38.1932 59.0448V271.575C38.2106 277.798 40.6903 283.761 45.0907 288.162C49.4911 292.562 55.4543 295.042 61.6773 295.059H188.608C187.16 231.901 208.735 109.336 254.387 35.5607Z" fill="#0F80CC"/>
<path d="M247.389 42.4162H61.6773C57.2689 42.422 53.0427 44.1758 49.9255 47.293C46.8083 50.4102 45.0545 54.6364 45.0487 59.0448V256.065C92.6929 238.096 142.986 228.148 193.884 226.625C207.345 164.036 225.225 102.478 247.389 42.4162V42.4162Z" fill="url(#paint0_linear_2_15)"/>
<path d="M299.337 28.6065C286.175 16.837 270.16 21.5646 254.365 35.5607C252.029 37.6448 249.693 39.9482 247.367 42.4162C217.654 77.5575 197.108 119.512 187.566 164.531C190.511 170.958 192.84 177.649 194.52 184.516C194.915 186.052 195.277 187.5 195.617 188.728C196.297 191.635 196.714 193.522 196.714 193.522C196.714 193.522 196.472 192.611 195.474 189.726L194.827 187.862C194.717 187.566 194.575 187.215 194.41 186.831C192.655 182.739 187.829 174.107 185.635 170.378C183.803 175.785 182.18 180.842 180.831 185.416C185.385 195.211 188.73 205.524 190.79 216.128C190.79 216.128 190.461 214.867 188.915 210.479C185.943 204.072 182.648 197.819 179.043 191.745C176.711 197.762 175.723 204.216 176.147 210.655C178.563 215.471 180.379 220.566 181.555 225.825C185.218 239.898 187.763 257.042 187.763 257.042C187.763 257.042 187.851 258.139 187.982 259.926C187.501 271.648 187.739 283.389 188.695 295.081C189.239 306.658 191.395 318.103 195.101 329.084L197.076 327.988C192.48 311.483 190.707 294.32 191.832 277.224C193.897 240.98 201.053 205.208 213.09 170.959C235.137 112.737 265.74 66.0099 293.71 43.7214C268.197 66.7558 233.667 141.343 223.324 168.963C212.432 197.4 204.156 226.772 198.6 256.713C205.213 240.003 218.16 226.583 234.622 219.375C234.622 219.375 248.146 202.692 263.952 178.867C253.741 180.997 243.653 183.681 233.733 186.908C226.055 190.132 223.982 191.229 223.982 191.229C238.639 182.402 254.124 175.029 270.215 169.215C299.568 122.982 331.552 57.3337 299.348 28.5517" fill="#003B57"/>
<defs>
<linearGradient id="paint0_linear_2_15" x1="145.984" y1="47.2364" x2="145.984" y2="244.658" gradientUnits="userSpaceOnUse">
<stop stop-color="#97D9F6"/>
<stop offset="0.92" stop-color="#0F80CC"/>
<stop offset="1" stop-color="#0F80CC"/>
</linearGradient>
</defs>
</svg>
