<svg width="1024" height="1024" viewBox="0 0 1024 1024" fill="none" xmlns="http://www.w3.org/2000/svg">
<path d="M85.3333 170.667V747.989V853.333C85.3333 900.48 123.537 938.667 170.667 938.667H341.333H682.667L938.667 682.667V170.667H85.3333Z" fill="#F1C40F"/>
<path d="M213.333 384V426.667H810.667V384H213.333ZM213.333 512V554.667H810.667V512H213.333ZM213.333 640V682.667H512V640H213.333Z" fill="#F39C12"/>
<path d="M938.667 682.667L682.667 938.667V768C682.667 721.067 720.853 682.667 768 682.667H938.667Z" fill="#F39C12"/>
<path d="M85.3333 213.333V170.667C85.3333 123.733 123.537 85.3333 170.667 85.3333H341.333H682.667H853.333C900.48 85.3333 938.667 123.733 938.667 170.667V213.333H85.3333Z" fill="#F39C12"/>
</svg>
