<svg width="1024" height="1024" viewBox="0 0 1024 1024" fill="none" xmlns="http://www.w3.org/2000/svg">
<path d="M830.664 900.797L528.271 899.332L530.018 528.601L895.718 530.372L894.273 836.925C894.234 845.353 892.557 853.691 889.339 861.462C886.12 869.233 881.424 876.285 875.517 882.216C869.611 888.147 862.609 892.841 854.914 896.029C847.218 899.217 838.978 900.837 830.664 900.797Z" fill="#8BC34A"/>
<path d="M192.337 125.345H512.89V513.057H125.229V192.462C125.229 174.661 132.299 157.59 144.885 145.003C157.47 132.416 174.539 125.345 192.337 125.345Z" fill="#03A9F4"/>
<path d="M125.229 833.651V513.057H512.89V900.768H192.337C174.539 900.768 157.47 893.697 144.885 881.11C132.299 868.523 125.229 851.452 125.229 833.651Z" fill="#03A9F4"/>
<path d="M900.552 513.057H512.891V125.345H833.444C842.256 125.345 850.983 127.081 859.125 130.454C867.267 133.827 874.665 138.771 880.897 145.003C887.128 151.235 892.071 158.634 895.444 166.777C898.816 174.92 900.552 183.648 900.552 192.462V513.057Z" fill="#03A9F4"/>
<path d="M883.322 616.016V646.343C883.328 650.91 885.145 655.287 888.376 658.514C891.606 661.74 895.985 663.553 900.551 663.553C905.117 663.553 909.496 661.74 912.726 658.514C915.957 655.287 917.775 650.91 917.781 646.343V616.016C917.775 611.449 915.957 607.072 912.726 603.845C909.496 600.619 905.117 598.806 900.551 598.806C895.985 598.806 891.606 600.619 888.376 603.845C885.145 607.072 883.328 611.449 883.322 616.016Z" fill="#314967"/>
<path d="M635.822 420.609L706.721 349.356L777.62 420.264C797.778 440.425 828.188 409.925 808.116 389.764L736.872 319.201L807.771 248.293C827.929 228.218 797.433 197.718 777.275 217.793L706.721 289.045L635.822 218.137C615.664 197.976 585.168 228.476 605.326 248.637L676.569 319.201L605.671 390.109C585.254 410.27 615.664 440.77 635.822 420.609Z" fill="#314967"/>
<path d="M297.524 793.071C297.524 821.503 340.597 821.589 340.597 793.071V728.452H405.207C433.635 728.452 433.722 685.373 405.207 685.373H340.597V620.755C340.597 592.322 297.524 592.236 297.524 620.755V685.373H232.913C204.485 685.373 204.399 728.452 232.913 728.452H297.524V793.071Z" fill="#314967"/>
<path d="M405.207 340.74C433.635 340.74 433.722 297.661 405.207 297.661H232.913C204.485 297.661 204.399 340.74 232.913 340.74H405.207Z" fill="#314967"/>
<path d="M883.541 659.817V690.145C883.547 694.711 885.365 699.088 888.595 702.315C891.826 705.542 896.205 707.354 900.77 707.354C905.336 707.354 909.715 705.542 912.946 702.315C916.176 699.088 917.994 694.711 918 690.145V659.817C917.994 655.251 916.176 650.874 912.946 647.647C909.715 644.42 905.336 642.607 900.77 642.607C896.205 642.607 891.826 644.42 888.595 647.647C885.365 650.874 883.547 655.251 883.541 659.817Z" fill="#314967"/>
<path d="M883.432 641.365V671.692C883.437 676.259 885.255 680.637 888.485 683.864C891.716 687.092 896.095 688.904 900.661 688.904C905.228 688.904 909.607 687.092 912.837 683.864C916.068 680.637 917.886 676.259 917.891 671.692V641.365C917.886 636.798 916.068 632.42 912.837 629.193C909.607 625.965 905.228 624.153 900.661 624.153C896.095 624.153 891.716 625.965 888.485 629.193C885.255 632.42 883.437 636.798 883.432 641.365Z" fill="#314967"/>
<path d="M883.432 681.563V711.89C883.437 716.457 885.255 720.835 888.485 724.062C891.716 727.29 896.095 729.102 900.661 729.102C905.228 729.102 909.607 727.29 912.837 724.062C916.068 720.835 917.886 716.457 917.891 711.89V681.563C917.886 676.996 916.068 672.618 912.837 669.391C909.607 666.163 905.228 664.351 900.661 664.351C896.095 664.351 891.716 666.163 888.485 669.391C885.255 672.618 883.437 676.996 883.432 681.563Z" fill="#314967"/>
<path d="M883.205 549.819V614.474C883.212 624.207 885.03 633.537 888.261 640.414C891.491 647.291 895.869 651.154 900.434 651.154C904.999 651.154 909.378 647.291 912.608 640.414C915.838 633.537 917.657 624.207 917.664 614.474V549.819C917.657 540.086 915.838 530.757 912.608 523.88C909.378 517.002 904.999 513.14 900.434 513.14C895.869 513.14 891.491 517.002 888.261 523.88C885.03 530.757 883.212 540.086 883.205 549.819Z" fill="#314967"/>
<path d="M108.017 313.019V369.637C108.019 378.166 109.835 386.344 113.066 392.374C116.297 398.403 120.678 401.79 125.246 401.79C129.814 401.79 134.195 398.403 137.426 392.374C140.657 386.344 142.473 378.166 142.475 369.637V313.019C142.473 304.49 140.657 296.312 137.426 290.282C134.195 284.253 129.814 280.866 125.246 280.866C120.678 280.866 116.297 284.253 113.066 290.282C109.835 296.312 108.019 304.49 108.017 313.019Z" fill="#314967"/>
<path d="M680.614 108L575.193 108.028C559.316 108.036 544.1 109.857 532.889 113.091C521.678 116.325 515.388 120.707 515.403 125.275C515.417 129.842 521.734 134.221 532.965 137.449C544.196 140.677 559.423 142.491 575.3 142.491L680.721 142.463C696.597 142.455 711.812 140.633 723.022 137.399C734.233 134.165 740.522 129.783 740.508 125.216C740.493 120.649 734.177 116.27 722.946 113.042C711.716 109.814 696.49 108 680.614 108H680.614Z" fill="#314967"/>
<path d="M309.754 883.49L188.328 883.755C152.106 883.763 136.44 874.215 136.472 883.724C136.502 893.241 138.793 917.98 175.015 917.971L309.871 917.94C346.093 917.932 375.43 910.21 375.398 900.693C375.365 891.176 345.976 883.468 309.754 883.477V883.49Z" fill="#314967"/>
<path d="M792.867 642.294H620.573C592.145 642.294 592.059 685.373 620.573 685.373H792.867C821.295 685.373 821.382 642.294 792.867 642.294Z" fill="#314967"/>
<path d="M792.867 728.452H620.573C592.145 728.452 592.059 771.531 620.573 771.531H792.867C821.295 771.531 821.382 728.452 792.867 728.452Z" fill="#314967"/>
<path d="M848.863 108.113H636.683C613.71 108.113 613.71 142.576 636.683 142.576H848.863C867.893 142.576 883.321 158.006 883.321 177.04V495.825H530.119V142.576H562.941C585.914 142.576 585.914 108.113 562.941 108.113H176.917C138.855 108.113 108 138.973 108 177.04V314.893C108 337.868 142.459 337.868 142.459 314.893V177.04C142.459 158.006 157.886 142.576 176.917 142.576H495.661V495.825H142.459V370.723C142.459 347.748 108 347.748 108 370.723V849.074C108 887.141 138.855 918 176.917 918C199.89 918 199.89 883.537 176.917 883.537C157.886 883.537 142.459 868.107 142.459 849.074V530.288H495.661V883.537H254.449C231.477 883.537 231.477 918 254.449 918H848.863C886.925 918 917.78 887.141 917.78 849.074V705.965C917.78 682.989 883.24 682.99 883.321 705.965L883.769 831.947C883.903 869.335 877.065 885.27 840.321 885.086L530.119 883.536V530.288H883.321V564.752C883.321 587.727 917.78 587.727 917.78 564.752V177.04C917.78 138.973 886.925 108.113 848.863 108.113Z" fill="#314967"/>
</svg>
