<svg width="1024" height="1024" viewBox="0 0 1024 1024" fill="none" xmlns="http://www.w3.org/2000/svg">
<path d="M512 896C724.077 896 896 724.077 896 512C896 299.923 724.077 128 512 128C299.923 128 128 299.923 128 512C128 724.077 299.923 896 512 896Z" fill="#FACC20"/>
<path d="M716.8 350.4L688 360L665.6 425.6L643.2 360L577.6 337.6L643.2 315.2L651.2 291.2C611.2 265.6 561.6 249.6 510.4 249.6C366.4 249.6 249.6 366.4 249.6 510.4C249.6 654.4 368 772.8 512 772.8C656 772.8 772.8 656 772.8 512C772.8 451.2 750.4 395.2 716.8 350.4Z" fill="#FDEF34"/>
<path opacity="0.1" d="M604.8 548.8C601.6 539.2 588.8 508.8 524.8 496V417.6C540.8 422.4 550.4 433.6 555.2 449.6C558.4 462.4 566.4 468.8 579.2 468.8C585.6 468.8 625.6 457.6 585.6 406.4C579.2 398.4 566.4 384 526.4 379.2V347.2H502.4V379.2C428.8 387.2 422.4 435.2 422.4 456C422.4 520 486.4 532.8 502.4 537.6V625.6C472 617.6 465.6 587.2 462.4 576C457.6 561.6 444.8 560 440 560C420.8 561.6 416 577.6 416 584C416 592 420.8 630.4 465.6 652.8C476.8 659.2 489.6 662.4 504 664V694.4H528V664C545.6 662.4 561.6 657.6 574.4 649.6C608 630.4 619.2 588.8 604.8 548.8ZM500.8 489.6C481.6 480 467.2 476.8 467.2 452.8C467.2 441.6 470.4 424 500.8 417.6V489.6ZM524.8 628.8V545.6C563.2 558.4 564.8 574.4 564.8 585.6C564.8 596.8 563.2 620.8 524.8 628.8Z" fill="#231F20"/>
<path opacity="0.2" d="M161.6 545.6C161.6 332.8 332.8 161.6 545.6 161.6C643.2 161.6 732.8 198.4 800 257.6C729.6 177.6 627.2 128 512 128C299.2 128 128 299.2 128 512C128 627.2 177.6 729.6 257.6 800C196.8 731.2 161.6 643.2 161.6 545.6Z" fill="white"/>
<path opacity="0.1" d="M766.4 224C827.2 291.2 862.4 380.8 862.4 478.4C862.4 691.2 691.2 862.4 478.4 862.4C380.8 862.4 291.2 825.6 224 766.4C294.4 846.4 396.8 896 512 896C724.8 896 896 724.8 896 512C896 396.8 846.4 294.4 766.4 224Z" fill="#231F20"/>
<g opacity="0.3">
<path opacity="0.3" d="M734.4 200L200 734.4C195.2 726.4 188.8 718.4 184 710.4L712 182.4C720 188.8 726.4 193.6 734.4 200Z" fill="white"/>
<path opacity="0.3" d="M840 313.6L312 841.6C286.4 825.6 264 808 241.6 787.2L784 244.8C806.4 264 825.6 288 840 313.6Z" fill="white"/>
</g>
<path d="M604.8 537.6C601.6 528 588.8 497.6 524.8 484.8V406.4C540.8 411.2 550.4 422.4 555.2 438.4C558.4 451.2 566.4 457.6 579.2 457.6C585.6 457.6 625.6 446.4 585.6 395.2C579.2 387.2 566.4 372.8 526.4 368V336H502.4V368C428.8 376 422.4 424 422.4 444.8C422.4 508.8 486.4 521.6 502.4 526.4V614.4C472 606.4 465.6 576 462.4 564.8C457.6 550.4 444.8 548.8 440 548.8C420.8 550.4 416 566.4 416 572.8C416 580.8 420.8 619.2 465.6 641.6C476.8 648 489.6 651.2 504 652.8V683.2H528V652.8C545.6 651.2 561.6 646.4 574.4 638.4C608 619.2 619.2 577.6 604.8 537.6ZM500.8 478.4C481.6 468.8 467.2 465.6 467.2 441.6C467.2 430.4 470.4 412.8 500.8 406.4V478.4ZM524.8 617.6V534.4C563.2 547.2 564.8 563.2 564.8 574.4C564.8 585.6 563.2 609.6 524.8 617.6Z" fill="#F7A90B"/>
<path d="M644.8 360L580.8 339.2L644.8 316.8L667.2 251.2L688 316.8L753.6 339.2L688 360L667.2 425.6L644.8 360Z" fill="white"/>
</svg>
