<svg width="1024" height="1024" viewBox="0 0 1024 1024" fill="none" xmlns="http://www.w3.org/2000/svg">
<path d="M512 952C755.005 952 952 755.005 952 512C952 268.995 755.005 72 512 72C268.995 72 72 268.995 72 512C72 755.005 268.995 952 512 952Z" fill="#F94867"/>
<path d="M814.965 346.598C848.941 405.564 858.131 475.602 840.518 541.338C822.904 607.073 779.926 663.133 721.018 697.211L486.036 832.877L485.89 832.623C483.804 833.997 481.845 835.297 479.686 836.544C457.79 849.18 431.771 852.602 407.352 846.057C382.933 839.511 362.114 823.535 349.473 801.641C336.833 779.747 333.406 753.729 339.947 729.309C346.488 704.888 362.461 684.066 384.353 671.422C386.512 670.175 388.618 669.129 390.85 668.009L390.703 667.755L416.107 653.088C419.446 651.164 422.373 648.601 424.722 645.544C427.07 642.488 428.793 638.999 429.792 635.277C430.791 631.554 431.047 627.671 430.544 623.85C430.042 620.029 428.792 616.344 426.865 613.006C424.937 609.668 422.371 606.743 419.313 604.397C416.255 602.052 412.765 600.332 409.041 599.336C405.318 598.34 401.435 598.087 397.614 598.593C393.793 599.098 390.109 600.352 386.773 602.282L329.616 635.282C300.977 651.791 266.956 656.259 235.025 647.703C203.095 639.147 175.865 618.268 159.318 589.651L151.984 576.95C135.475 548.31 131.007 514.289 139.563 482.359C148.119 450.428 168.998 423.199 197.615 406.651L464.351 252.651C523.309 218.64 593.359 209.431 659.105 227.047C724.85 244.664 780.911 287.664 814.965 346.598V346.598Z" fill="#F0F0F0" stroke="white" stroke-width="0.5" stroke-miterlimit="10"/>
<path d="M330.071 533.405C365.146 513.155 377.164 468.305 356.913 433.23C336.663 398.155 291.813 386.138 256.738 406.388C221.663 426.638 209.646 471.488 229.896 506.563C250.147 541.638 294.997 553.655 330.071 533.405Z" fill="#F2562F"/>
<path d="M380.878 504.072C394.908 495.971 399.715 478.032 391.615 464.002C383.515 449.972 365.575 445.165 351.545 453.265C337.515 461.365 332.708 479.305 340.808 493.335C348.908 507.365 366.848 512.172 380.878 504.072Z" fill="#F2562F"/>
<path d="M282.212 611.844C292.735 605.768 296.34 592.313 290.265 581.791C284.19 571.269 270.735 567.663 260.212 573.738C249.69 579.814 246.085 593.269 252.16 603.791C258.235 614.313 271.69 617.919 282.212 611.844Z" fill="#F2562F"/>
<path d="M410.212 554.879C417.227 550.829 419.63 541.858 415.58 534.844C411.53 527.829 402.56 525.425 395.545 529.475C388.53 533.525 386.127 542.495 390.177 549.51C394.227 556.525 403.197 558.929 410.212 554.879Z" fill="#F2562F"/>
<path d="M515.229 443.44C550.303 423.19 562.321 378.34 542.07 343.265C521.82 308.19 476.97 296.173 441.895 316.423C406.82 336.674 394.803 381.524 415.053 416.598C435.304 451.673 480.154 463.691 515.229 443.44Z" fill="#FDD303"/>
<path d="M544.035 376.002C558.065 367.901 562.872 349.961 554.772 335.932C546.672 321.902 528.732 317.095 514.702 325.195C500.672 333.295 495.865 351.235 503.965 365.265C512.065 379.295 530.005 384.102 544.035 376.002Z" fill="#FDD303"/>
<path d="M725.333 440.685C763.915 418.41 777.135 369.075 754.859 330.493C732.584 291.91 683.249 278.691 644.666 300.966C606.084 323.242 592.865 372.577 615.14 411.159C637.416 449.741 686.751 462.961 725.333 440.685Z" fill="#1891FF"/>
<path d="M654.491 464.65C679.044 450.475 687.456 419.08 673.281 394.528C659.105 369.975 627.71 361.563 603.158 375.738C578.606 389.914 570.194 421.309 584.369 445.861C598.544 470.413 629.939 478.826 654.491 464.65Z" fill="#1891FF"/>
<path d="M766.386 467.79C787.431 455.64 794.641 428.73 782.491 407.685C770.341 386.64 743.431 379.43 722.386 391.58C701.341 403.73 694.131 430.64 706.281 451.685C718.431 472.73 745.341 479.941 766.386 467.79Z" fill="#1891FF"/>
<path d="M647.229 672.071C682.304 651.82 694.321 606.97 674.071 571.896C653.82 536.821 608.97 524.803 573.895 545.054C538.821 565.304 526.803 610.154 547.054 645.229C567.304 680.304 612.154 692.321 647.229 672.071Z" fill="#6B6FDE"/>
<path d="M539.72 632.527C553.75 624.427 558.557 606.487 550.457 592.457C542.357 578.427 524.417 573.62 510.387 581.72C496.357 589.82 491.55 607.76 499.65 621.79C507.75 635.82 525.69 640.627 539.72 632.527Z" fill="#6B6FDE"/>
<path d="M534.808 550.685C545.33 544.61 548.935 531.155 542.86 520.633C536.785 510.11 523.33 506.505 512.808 512.58C502.285 518.655 498.68 532.11 504.755 542.633C510.83 553.155 524.285 556.761 534.808 550.685Z" fill="#6B6FDE"/>
<path d="M681.93 702.842C688.945 698.792 691.349 689.822 687.299 682.807C683.249 675.792 674.279 673.389 667.264 677.439C660.249 681.489 657.845 690.459 661.895 697.474C665.945 704.489 674.915 706.893 681.93 702.842Z" fill="#6B6FDE"/>
<path d="M465.019 811.141C496.586 792.916 507.402 752.551 489.176 720.983C470.951 689.416 430.586 678.6 399.019 696.826C367.451 715.051 356.636 755.416 374.861 786.983C393.087 818.551 433.451 829.366 465.019 811.141Z" fill="#CBCBCB"/>
<path d="M457.686 798.439C482.238 784.264 490.65 752.869 476.475 728.317C462.3 703.764 430.905 695.352 406.352 709.527C381.8 723.703 373.388 755.098 387.563 779.65C401.738 804.202 433.133 812.615 457.686 798.439Z" fill="#1891FF"/>
<path d="M628.561 361.072C639.084 354.997 642.689 341.542 636.614 331.019C630.539 320.497 617.084 316.891 606.561 322.967C596.039 329.042 592.434 342.497 598.509 353.019C604.584 363.542 618.039 367.147 628.561 361.072Z" fill="#FDD303"/>
<path d="M835.987 587.387C836.028 605.836 832.148 624.083 824.605 640.92H749.8C748.116 640.342 746.492 639.605 744.947 638.72C736.72 634.903 729.752 628.819 724.861 621.181C719.969 613.544 717.358 604.669 717.333 595.6C717.31 589.509 718.505 583.475 720.848 577.853C723.08 572.322 726.314 567.25 730.387 562.893C732.188 560.972 734.147 559.206 736.244 557.613C739.09 555.267 742.436 553.653 745.448 551.453C748.479 549.409 751.284 547.049 753.816 544.413C753.984 544.267 754.151 543.973 754.319 543.827C758.598 539.607 762.209 534.761 765.028 529.453C767.914 524.168 770.001 518.484 771.22 512.587C772.163 508.301 772.612 503.921 772.559 499.533C772.575 488.471 769.69 477.599 764.192 468C785.745 479.657 803.776 496.883 816.404 517.882C829.032 538.881 835.795 562.884 835.987 587.387V587.387Z" fill="#AEAEAE"/>
<path d="M817.745 590.467C817.729 607.195 813.894 623.699 806.533 638.72H744.947C736.72 634.903 729.752 628.819 724.861 621.181C719.97 613.544 717.358 604.67 717.333 595.6C717.31 589.509 718.505 583.475 720.848 577.853C723.08 572.322 726.314 567.25 730.387 562.893C732.188 560.972 734.147 559.206 736.244 557.613C739.09 555.267 742.436 553.653 745.448 551.453C748.479 549.409 751.284 547.049 753.816 544.413C753.984 544.267 754.151 543.973 754.319 543.827C758.598 539.607 762.209 534.761 765.028 529.453C767.914 524.168 770.001 518.484 771.22 512.587C772.163 508.301 772.612 503.921 772.559 499.533C786.423 510.337 797.681 524.118 805.502 539.857C813.323 555.597 817.507 572.893 817.745 590.467V590.467Z" fill="#CBCBCB"/>
<path d="M732 659.583H834.667V900.667C834.667 914.281 829.258 927.338 819.631 936.965C810.005 946.592 796.948 952 783.333 952V952C769.719 952 756.662 946.592 747.035 936.965C737.408 927.338 732 914.281 732 900.667V659.583Z" fill="#4F5564"/>
<path d="M834.667 668.063H732C728.11 668.063 724.38 666.517 721.629 663.767C718.879 661.016 717.333 657.286 717.333 653.396C717.333 649.506 718.879 645.776 721.629 643.025C724.38 640.275 728.11 638.729 732 638.729H834.667C838.557 638.729 842.287 640.275 845.038 643.025C847.788 645.776 849.333 649.506 849.333 653.396C849.333 657.286 847.788 661.016 845.038 663.767C842.287 666.517 838.557 668.063 834.667 668.063Z" fill="white"/>
</svg>
